<svg width="31" height="21" viewBox="0 0 31 21" fill="none" xmlns="http://www.w3.org/2000/svg">
<path d="M4.26962 14.5881H2.52521C1.80504 14.5881 1.33715 15.3217 1.73605 15.9213C2.98669 17.8012 5.15852 19.7058 7.53923 19.7058C9.91995 19.7058 12.0918 17.8012 13.3424 15.9213C13.7413 15.3217 13.2734 14.5881 12.5533 14.5881H10.8089M4.26962 14.5881H7.53923H10.8089M4.26962 14.5881L6.60966 8.68714C6.94349 7.84531 8.13498 7.84531 8.46881 8.68714L10.8089 14.5881" stroke="#A5A5A5" stroke-width="2"/>
<path d="M20.1912 14.5881H18.4468C17.7267 14.5881 17.2588 15.3217 17.6577 15.9213C18.9083 17.8012 21.0801 19.7058 23.4609 19.7058C25.8416 19.7058 28.0134 17.8012 29.2641 15.9213C29.6629 15.3217 29.1951 14.5881 28.4749 14.5881H26.7305M20.1912 14.5881H23.4609H26.7305M20.1912 14.5881L22.5313 8.68714C22.8651 7.84531 24.0566 7.84531 24.3904 8.68714L26.7305 14.5881" stroke="#A5A5A5" stroke-width="2"/>
<circle cx="15.7848" cy="3.70601" r="2.41177" stroke="#A5A5A5" stroke-width="2"/>
<path d="M6.68652 5.18972L12.9414 4.05246" stroke="#A5A5A5" stroke-width="2" stroke-linecap="round"/>
<path d="M18.6277 4.05246L24.314 5.18972" stroke="#A5A5A5" stroke-width="2" stroke-linecap="round"/>
</svg>
